<svg class="" xmlns="http://www.w3.org/2000/svg" width="57.696" height="43.111" viewBox="0 0 57.696 43.111"><g transform="translate(-3.498 -15)"><path d="M56.057,15.127a5.167,5.167,0,0,0-5.072,4.311H37.417V15H26.64v4.438H13.706a5.186,5.186,0,0,0-5.833-4.311A5.208,5.208,0,0,0,3.5,20.389a5.2,5.2,0,0,0,4.945,5.325,5.208,5.208,0,0,0,5.262-4.375H26.64A15.154,15.154,0,0,0,17.13,35.6V47.333H12.692V58.111H23.47V47.333H19.032V35.6A13.581,13.581,0,0,1,26.64,23.432v2.346H37.417V23.369a13.1,13.1,0,0,1,8.242,12.173V47.333H40.587V58.111H51.365V47.333h-3.8V35.541a15.137,15.137,0,0,0-9.89-14.2H50.985a5.159,5.159,0,1,0,5.072-6.213Z" transform="translate(0)" fill="#ff8307"></path></g></svg>