<svg class="" xmlns="http://www.w3.org/2000/svg" width="45.149" height="45.148" viewBox="0 0 45.149 45.148"><path d="M50.07,8H11.078A3.082,3.082,0,0,0,8,11.078V50.07a3.082,3.082,0,0,0,3.078,3.078H50.07a3.082,3.082,0,0,0,3.078-3.078V11.078A3.082,3.082,0,0,0,50.07,8ZM11.078,10.052H50.07A1.027,1.027,0,0,1,51.1,11.078v9.235H10.052V11.078A1.027,1.027,0,0,1,11.078,10.052ZM50.07,51.1H11.078a1.027,1.027,0,0,1-1.026-1.026v-27.7H51.1v27.7A1.027,1.027,0,0,1,50.07,51.1Z" transform="translate(-8 -8)" fill="#ff8307"></path><path d="M15.078,18.157A3.078,3.078,0,1,0,12,15.078,3.082,3.082,0,0,0,15.078,18.157Zm0-4.1a1.026,1.026,0,1,1-1.026,1.026A1.027,1.027,0,0,1,15.078,14.052Z" transform="translate(-7.896 -7.896)" fill="#ff8307"></path><path d="M23.078,18.157A3.078,3.078,0,1,0,20,15.078,3.082,3.082,0,0,0,23.078,18.157Zm0-4.1a1.026,1.026,0,1,1-1.026,1.026A1.027,1.027,0,0,1,23.078,14.052Z" transform="translate(-7.687 -7.896)" fill="#ff8307"></path><rect width="16.344" height="1.362" transform="translate(25.298 6.23)" fill="#ff8307"></rect><path d="M22.856,31.3a1.026,1.026,0,0,0-1.451,0l-4.1,4.1a1.026,1.026,0,0,0,0,1.451l4.1,4.1a1.026,1.026,0,0,0,1.451-1.451l-3.379-3.379,3.379-3.379A1.026,1.026,0,0,0,22.856,31.3Z" transform="translate(-7.765 -7.4)" fill="#ff8307"></path><path d="M38.752,31.3A1.026,1.026,0,1,0,37.3,32.752l3.379,3.379L37.3,39.509a1.026,1.026,0,1,0,1.451,1.451l4.1-4.1a1.026,1.026,0,0,0,0-1.451Z" transform="translate(-7.243 -7.4)" fill="#ff8307"></path><path d="M33.564,28.073a1.029,1.029,0,0,0-1.334.572L26.073,44.036a1.026,1.026,0,1,0,1.906.763l6.157-15.392A1.027,1.027,0,0,0,33.564,28.073Z" transform="translate(-7.53 -7.478)" fill="#ff8307"></path></svg>