<svg>
<path id="Subtraction_138" data-name="Subtraction 138" d="M101.4,145.683H49.3a1.3,1.3,0,1,1,0-2.605h9.741l3.714-15.835h-47.9A6.826,6.826,0,0,1,8,120.456V47.795a6.826,6.826,0,0,1,6.849-6.787H24.3V9.3A1.309,1.309,0,0,1,25.61,8h99.473A1.31,1.31,0,0,1,126.4,9.3V41.008h9.452a6.826,6.826,0,0,1,6.849,6.787v72.66a6.833,6.833,0,0,1-6.848,6.788H88.666L91.7,143.078h9.7a1.3,1.3,0,1,1,0,2.605Zm-35.945-18.44-3.714,15.835H89.02l-3.034-15.835Zm21.624-3.694h0v1.085l.089,0H135.85a4.2,4.2,0,0,0,4.216-4.181V108.877H10.632v11.577a4.2,4.2,0,0,0,4.216,4.181h72.18ZM14.849,43.613a4.2,4.2,0,0,0-4.216,4.181v58.479H140.066V47.794a4.2,4.2,0,0,0-4.216-4.181H126.4V86.7a1.283,1.283,0,0,1-.383.918,1.312,1.312,0,0,1-.93.382H25.612A1.31,1.31,0,0,1,24.3,86.7V43.613ZM26.924,10.6V85.394H123.77V10.6ZM128.851,118.06h-3.765a1.3,1.3,0,1,1,0-2.6h3.765a1.31,1.31,0,0,1,1.313,1.3,1.285,1.285,0,0,1-.384.92A1.311,1.311,0,0,1,128.851,118.06Zm-13.3,0h-3.766a1.3,1.3,0,1,1,0-2.6h3.765a1.312,1.312,0,0,1,1.314,1.307,1.274,1.274,0,0,1-.379.915A1.314,1.314,0,0,1,115.55,118.06Zm-13.3,0H98.486a1.3,1.3,0,1,1,0-2.6h3.765a1.31,1.31,0,0,1,1.314,1.3,1.287,1.287,0,0,1-.384.92A1.312,1.312,0,0,1,102.252,118.06Zm11.317-42.947H37.128a1.3,1.3,0,1,1,0-2.605h76.441a1.31,1.31,0,0,1,1.314,1.3,1.286,1.286,0,0,1-.384.92A1.312,1.312,0,0,1,113.568,75.113Zm-9.761-11.969H37.128a1.3,1.3,0,1,1,0-2.605h66.679a1.31,1.31,0,0,1,1.314,1.3,1.287,1.287,0,0,1-.384.92A1.312,1.312,0,0,1,103.807,63.144ZM93.949,51.176H37.13a1.3,1.3,0,1,1,0-2.6H93.949a1.311,1.311,0,0,1,1.314,1.306,1.277,1.277,0,0,1-.38.915A1.315,1.315,0,0,1,93.949,51.176ZM72.359,40.629a1.4,1.4,0,0,1-.432-.071,1.3,1.3,0,0,1-.811-1.658L77.1,21.764a1.312,1.312,0,0,1,1.241-.876,1.331,1.331,0,0,1,.433.073,1.3,1.3,0,0,1,.811,1.658L73.6,39.752A1.317,1.317,0,0,1,72.359,40.629ZM89.044,39.1a1.321,1.321,0,0,1-.908-.359,1.3,1.3,0,0,1-.043-1.845L94,30.758l-5.907-6.143a1.3,1.3,0,0,1,.043-1.845,1.323,1.323,0,0,1,1.86.043l6.771,7.039a1.293,1.293,0,0,1,0,1.8l-6.774,7.043A1.3,1.3,0,0,1,89.044,39.1Zm-27.393,0a1.312,1.312,0,0,1-.951-.4l-6.771-7.039a1.294,1.294,0,0,1,0-1.8L60.7,22.817a1.323,1.323,0,0,1,1.861-.043A1.3,1.3,0,0,1,62.6,24.62l-5.908,6.138L62.6,36.9a1.3,1.3,0,0,1-.952,2.2Z" transform="translate(-8 -8)" fill="#fff"></path>
</svg>