<svg class="hvr-icon" xmlns="http://www.w3.org/2000/svg" width="70.001" height="70.001" viewBox="0 0 69.5 65.291"><g id="data_analytics" transform="translate(-148.569 -162.233)"><path id="Subtraction_1" data-name="Subtraction 1" d="M-8932.226-76.226h-32.405a2.7,2.7,0,0,1-2.7-2.694V-80.6a7.188,7.188,0,0,1,.674-2.832l1.673-2.647.243-.383h-13.5a5.078,5.078,0,0,1-4.939-5.08v-44.891a5.271,5.271,0,0,1,4.946-5.08h59.614a5.078,5.078,0,0,1,4.939,5.08v44.891a5.078,5.078,0,0,1-4.939,5.08h-13.465l.2.37c.218.4.474.781.739,1.172a7.208,7.208,0,0,1,1.612,4.32v1.684A2.7,2.7,0,0,1-8932.226-76.226Zm-29.74-10.241-.075.122c-.687,1.148-1.229,1.95-1.665,2.594l-.011.015c-.9,1.324-1.3,1.927-1.3,3.132v1.684a.382.382,0,0,0,.391.39h32.545a.382.382,0,0,0,.39-.39V-80.6a4.647,4.647,0,0,0-1.181-2.866c-.468-.686-1.051-1.541-1.795-2.868l-.072-.129h-27.222Zm-16.274-52.746a2.745,2.745,0,0,0-2.636,2.775v44.891a2.745,2.745,0,0,0,2.636,2.775h59.761a2.745,2.745,0,0,0,2.636-2.775v-44.891a2.745,2.745,0,0,0-2.636-2.775Zm50.783,47h-41.8a.854.854,0,0,1-.871-.873v-10.1a.854.854,0,0,1,.871-.873h9.649v-6.421a.854.854,0,0,1,.872-.873h10.381a.854.854,0,0,1,.872.873v3.335h8.777v-8.667a.787.787,0,0,1,.873-.873h10.38a.854.854,0,0,1,.872.873V-93.09A.854.854,0,0,1-8927.457-92.218Zm-9.647-22.866V-94.1h8.774v-20.981Zm-10.383,9.539V-94.1h8.777v-11.442Zm-10.38-4.209V-94.1h8.774v-15.651Zm-10.522,7.154v8.5h8.777v-8.5Zm2.775-9.959a4.87,4.87,0,0,1-4.658-4.394,4.585,4.585,0,0,1,4.519-4.5,3.827,3.827,0,0,1,2.115.525l.178.106,4.209-4.66-.133-.167a4.066,4.066,0,0,1-.789-2.507,4.472,4.472,0,0,1,4.521-4.52,4.581,4.581,0,0,1,4.521,4.52,3.316,3.316,0,0,1-.255,1.569l-.1.2,3.7,2.367.169.108.142-.142a4.2,4.2,0,0,1,3.047-1.188,4.613,4.613,0,0,1,2.4.665l.162.1,4.207-4.061.145-.138-.1-.169a4.482,4.482,0,0,1-.668-2.257,4.471,4.471,0,0,1,4.521-4.518,4.58,4.58,0,0,1,4.521,4.518,4.581,4.581,0,0,1-4.521,4.52,4.634,4.634,0,0,1-2.4-.665l-.164-.1-4.347,4.2.1.171a4.482,4.482,0,0,1,.668,2.257,4.472,4.472,0,0,1-4.522,4.518,4.579,4.579,0,0,1-4.519-4.518,3.337,3.337,0,0,1,.255-1.574l.095-.192-3.54-2.509-.174-.122-.148.149a4.193,4.193,0,0,1-3.051,1.19,3.838,3.838,0,0,1-2.112-.525l-.178-.106-4.065,4.5-.143.158.134.167a4.094,4.094,0,0,1,.784,2.509A4.581,4.581,0,0,1-8965.614-112.559Zm0-7.3a3,3,0,0,0-2.913,2.895l0,.023a2.819,2.819,0,0,0,2.915,2.915,2.918,2.918,0,0,0,2.915-2.915A2.92,2.92,0,0,0-8965.614-119.855Zm21.042-3.646a2.918,2.918,0,0,0-2.915,2.915,2.819,2.819,0,0,0,2.915,2.915,2.82,2.82,0,0,0,2.916-2.915A2.919,2.919,0,0,0-8944.572-123.5Zm-10.941-7.575a2.918,2.918,0,0,0-2.915,2.915,2.918,2.918,0,0,0,2.915,2.915,2.918,2.918,0,0,0,2.915-2.915A2.918,2.918,0,0,0-8955.514-131.076Zm21.464-2.807a2.763,2.763,0,0,0-1.986.884,3.393,3.393,0,0,0-.929,2.009v.025a2.918,2.918,0,0,0,2.915,2.915,2.918,2.918,0,0,0,2.915-2.915A2.92,2.92,0,0,0-8934.05-133.883Z" transform="translate(9131.749 303.75)" fill="currentColor"></path></g></svg>