<svg class="hvr-icon" xmlns="http://www.w3.org/2000/svg" width="76.375" height="42.272" viewBox="0 0 76.375 42.272"><g transform="translate(-3.018 -976.358)"><path d="M41.79,976.466l36.577,13.818a1.626,1.626,0,0,1,0,3.023l-4.648,1.753v8.763a2.438,2.438,0,1,1-3.251,0v-7.544l-5.613,2.134.737,10.338c.121,1.7-.951,3.008-2.286,4.089A19.909,19.909,0,0,1,58,1015.71a47.63,47.63,0,0,1-16.79,2.921,47.63,47.63,0,0,1-16.79-2.921,19.911,19.911,0,0,1-5.309-2.87c-1.335-1.082-2.407-2.391-2.286-4.089l.737-10.338L4.045,993.307a1.626,1.626,0,0,1,0-3.023l36.577-13.818a1.675,1.675,0,0,1,1.169,0Zm-.584,3.251-32,12.091,32,12.065,32-12.065Zm20.473,19.889-19.889,7.519a1.644,1.644,0,0,1-1.168,0l-19.889-7.519-.66,9.373a2.849,2.849,0,0,0,1.067,1.321,17.336,17.336,0,0,0,4.445,2.388,44.8,44.8,0,0,0,15.621,2.692,44.8,44.8,0,0,0,15.621-2.692,17.338,17.338,0,0,0,4.445-2.388,2.858,2.858,0,0,0,1.067-1.321Z" transform="translate(0 0)" fill="currentColor"></path></g></svg>