<svg class="hvr-icon" xmlns="http://www.w3.org/2000/svg" width="80" height="80" viewBox="0 0 80 80" fill="none"><path d="M30 73.3334H50C66.6667 73.3334 73.3333 66.6667 73.3333 50V30C73.3333 13.3334 66.6667 6.66669 50 6.66669H30C13.3333 6.66669 6.66666 13.3334 6.66666 30V50C6.66666 66.6667 13.3333 73.3334 30 73.3334Z" stroke="#212529" stroke-width="3"></path><path d="M51.6667 32.5C54.4281 32.5 56.6667 30.2614 56.6667 27.5C56.6667 24.7386 54.4281 22.5 51.6667 22.5C48.9052 22.5 46.6667 24.7386 46.6667 27.5C46.6667 30.2614 48.9052 32.5 51.6667 32.5Z" stroke="#212529" stroke-width="3"></path><path d="M28.3333 32.5C31.0948 32.5 33.3333 30.2614 33.3333 27.5C33.3333 24.7386 31.0948 22.5 28.3333 22.5C25.5719 22.5 23.3333 24.7386 23.3333 27.5C23.3333 30.2614 25.5719 32.5 28.3333 32.5Z" stroke="#212529" stroke-width="3"></path><path d="M28 44.3333H52C53.6667 44.3333 55 45.6666 55 47.3333C55 55.6333 48.3 62.3333 40 62.3333C31.7 62.3333 25 55.6333 25 47.3333C25 45.6666 26.3333 44.3333 28 44.3333Z" stroke="#212529" stroke-width="3"></path></svg>