<svg class="hvr-icon" xmlns="http://www.w3.org/2000/svg" width="63.088" height="61.995" viewBox="0 0 63.088 61.995"><g transform="translate(-9.45 -10.152)"><path d="M65.576,72.147H16.568c-2.564,0-4.338-.445-5.421-1.364a1.285,1.285,0,0,1-.128-.124C9.963,69.442,9.45,67.6,9.45,65.031V32.707a9.735,9.735,0,0,1,.8-4.019,1.113,1.113,0,0,1,.061-.117A8.634,8.634,0,0,1,13.4,25.639c6.771-3.826,14.7-8.56,23.6-14.085a6.734,6.734,0,0,1,8.211-.008c7.3,4.422,15.3,9.216,23.8,14.247a6.6,6.6,0,0,1,2.867,2.866.881.881,0,0,1,.038.088,10.665,10.665,0,0,1,.624,3.845V65.379a8.424,8.424,0,0,1-1.367,5.22,1.153,1.153,0,0,1-.225.223C69.767,71.714,68.011,72.147,65.576,72.147ZM12.722,69.055c.407.306,1.42.758,3.846.758H65.576a7.111,7.111,0,0,0,3.835-.762,6.722,6.722,0,0,0,.793-3.672V32.591a8.468,8.468,0,0,0-.447-2.954,4.321,4.321,0,0,0-1.9-1.816c-8.553-5.064-16.578-9.868-23.889-14.3q-.035-.021-.068-.044a4.935,4.935,0,0,0-2.905-.993,4.514,4.514,0,0,0-2.661.986l-.068.046c-8.936,5.552-16.906,10.31-23.69,14.142a6.385,6.385,0,0,0-2.22,2.053,7.476,7.476,0,0,0-.57,3V65.031A6.681,6.681,0,0,0,12.722,69.055Z" fill="currentColor"></path><path d="M53.046,53.354H43.867A1.167,1.167,0,0,1,42.7,52.188V43.164A1.167,1.167,0,0,1,43.867,42h9.179a1.167,1.167,0,0,1,1.167,1.167v9.024A1.167,1.167,0,0,1,53.046,53.354Zm-8.012-2.334h6.846v-6.69H45.034Z" transform="translate(-7.385 -7.073)" fill="currentColor"></path><path d="M53.046,75.838H43.867A1.167,1.167,0,0,1,42.7,74.672V65.764A1.167,1.167,0,0,1,43.867,64.6h9.179a1.167,1.167,0,0,1,1.167,1.167v8.908A1.167,1.167,0,0,1,53.046,75.838ZM45.034,73.5h6.846V66.931H45.034Z" transform="translate(-7.385 -12.092)" fill="currentColor"></path><path d="M31.441,53.421H22.417a1.167,1.167,0,0,1-1.167-1.167v-8.79A1.167,1.167,0,0,1,22.417,42.3h9.024a1.167,1.167,0,0,1,1.167,1.167v8.79A1.167,1.167,0,0,1,31.441,53.421Zm-7.857-2.334h6.69V44.632h-6.69v6.456Z" transform="translate(-2.621 -7.139)" fill="currentColor"></path><path d="M31.357,75.838h-8.79A1.167,1.167,0,0,1,21.4,74.672V65.764A1.167,1.167,0,0,1,22.567,64.6h8.79a1.167,1.167,0,0,1,1.167,1.167v8.908A1.167,1.167,0,0,1,31.357,75.838ZM23.734,73.5H30.19V66.931H23.734V73.5Z" transform="translate(-2.654 -12.092)" fill="currentColor"></path><path d="M74.918,53.354h-9.1a1.167,1.167,0,0,1-1.167-1.167V43.164A1.167,1.167,0,0,1,65.817,42h9.1a1.167,1.167,0,0,1,1.167,1.167v9.024A1.167,1.167,0,0,1,74.918,53.354Zm-7.935-2.334h6.768v-6.69H66.984Z" transform="translate(-12.26 -7.073)" fill="currentColor"></path><path d="M74.918,75.838h-9.1a1.167,1.167,0,0,1-1.167-1.167V65.764A1.167,1.167,0,0,1,65.817,64.6h9.1a1.167,1.167,0,0,1,1.167,1.167v8.908A1.167,1.167,0,0,1,74.918,75.838ZM66.984,73.5h6.768V66.931H66.984Z" transform="translate(-12.26 -12.092)" fill="currentColor"></path></g></svg>