<svg xmlns="http://www.w3.org/2000/svg" class="finger" viewBox="0 0 264.34 265.43"><g id="Layer_2" data-name="Layer 2"><g id="Layer_1-2" data-name="Layer 1"><path class="cls-1" d="M4,132.46S3.82,77,43.6,39.85" style="stroke-dasharray: 103.26px; stroke-dashoffset: -40.435px;"></path><path class="cls-1" d="M57.88,27.91c0,.13,75.51-54.76,148.06,1.36" style="stroke-dasharray: 158.589px; stroke-dashoffset: -62.1011px;"></path><path class="cls-1" d="M231.1,50.36s49.06,48.53,20.08,132.76" style="stroke-dasharray: 140.854px; stroke-dashoffset: -55.1564px;"></path><path class="cls-1" d="M170.58,38.68S239.69,56.43,233,153" style="stroke-dasharray: 140.877px; stroke-dashoffset: -55.1652px;"></path><path class="cls-1" d="M229.5,180.56s-4.34,37.17-25.48,59.93" style="stroke-dasharray: 66.0464px; stroke-dashoffset: -25.8628px;"></path><path class="cls-1" d="M91.27,69.93s53.3-30.08,91.65,7.71c42.85,42.24,27.8,124.92-16.26,177.32" style="stroke-dasharray: 292.48px; stroke-dashoffset: -114.531px;"></path><path class="cls-1" d="M176.87,115.81S153.32,67.17,107.8,93.05c0,0-26.54,13.44-23.61,51.29,2.72,35-15.49,78.66-45.56,82" style="stroke-dasharray: 244.362px; stroke-dashoffset: -95.6886px;"></path><path class="cls-1" d="M112.13,133.07s1.78-23.24,22.21-20.94c0,0,18.67,0,17.45,24.51-1.95,39-14.41,64.56-14.41,64.56" style="stroke-dasharray: 134.84px; stroke-dashoffset: -52.8014px;"></path><path class="cls-1" d="M57.9,136.61S55.33,105.73,77.36,82" style="stroke-dasharray: 59.4637px; stroke-dashoffset: -23.2851px;"></path><path class="cls-1" d="M56.39,152.41s-1.84,44-34.44,53.69" style="stroke-dasharray: 67.8398px; stroke-dashoffset: -26.5651px;"></path><path class="cls-1" d="M13.18,179.45s14.77-9.7,16.56-37.79,4.79-101.29,105.13-110" style="stroke-dasharray: 212.931px; stroke-dashoffset: -83.3808px;"></path><path class="cls-1" d="M109.62,165.63s-5.55,72.52-51.81,74.86" style="stroke-dasharray: 99.0093px; stroke-dashoffset: -38.7706px;"></path><path class="cls-1" d="M129.87,217.13S118,249,87.26,255" style="stroke-dasharray: 59.3408px; stroke-dashoffset: -23.237px;"></path><path class="cls-1" d="M179.1,150.68s2.75,66.45-52.5,110.75" style="stroke-dasharray: 126.662px; stroke-dashoffset: -49.599px;"></path></g></g></svg>