<svg class="" xmlns="http://www.w3.org/2000/svg" width="43.078" height="43.142" viewBox="0 0 43.078 43.142"><g transform="translate(-1849 -8058)"><g transform="translate(1849 8058)"><rect width="11.03" height="1.902" transform="translate(17.182 24.612) rotate(-45)" fill="#ff8307"></rect><path d="M20.61,39.029,22,40.424l-3.233,3.233L29.928,54.814l3.233-3.233,1.712,1.712h0l6.593,6.593L46.346,55l-.317-12.932,4.818-4.818c.634-.571,8.494-7.86,5.071-19.017l-.127-.507-.507-.127c-11.157-3.423-18.447,4.437-19.017,5.071l-4.818,4.818-12.932-.317L13.7,32.12Zm9.255,13.122-8.431-8.494,1.9-1.9,8.431,8.431Zm11.6,5.071L36.2,51.961l7.987-7.987.254,10.269Zm-3.8-33.153h0A16.508,16.508,0,0,1,54.27,19.315,16.326,16.326,0,0,1,49.579,35.86L34.809,50.567,22.955,38.713Zm-18.32,5.071,10.269.254-7.987,7.987L16.362,32.12Z" transform="translate(-13.7 -16.744)" fill="#ff8307"></path><rect width="4.12" height="1.902" transform="translate(1.437 31.492) rotate(-45)" fill="#ff8307"></rect><rect width="4.12" height="1.902" transform="translate(10.246 40.309) rotate(-45)" fill="#ff8307"></rect><rect width="6.656" height="1.902" transform="translate(4.049 37.724) rotate(-45)" fill="#ff8307"></rect><path d="M60.1,37.741a4.181,4.181,0,0,0,2.916-1.2,4.057,4.057,0,0,0,0-5.832,4.132,4.132,0,0,0-5.832,0,4.057,4.057,0,0,0,0,5.832A4.181,4.181,0,0,0,60.1,37.741Zm-1.585-5.769a2.2,2.2,0,0,1,1.585-.634,2.5,2.5,0,0,1,1.585.634,2.219,2.219,0,0,1,0,3.17,2.341,2.341,0,0,1-3.17,0A2.219,2.219,0,0,1,58.517,31.972Z" transform="translate(-29.167 -21.414)" fill="#ff8307"></path></g></g></svg>