<svg class="hvr-icon" xmlns="http://www.w3.org/2000/svg" width="63.088" height="56.823" viewBox="0 0 63.088 56.823"><path d="M71.327,28.228h0C69.418,18.91,62.7,12.876,54.143,12.876c-4.43,0-9.165,1.68-13.824,4.888C35.66,14.48,30.849,12.8,26.343,12.8c-8.63,0-15.351,6.11-17.184,15.5-2.6,13.518,5.652,31.39,29.786,41.089l1.375.229a3.59,3.59,0,0,0,1.3-.229C65.752,59.541,73.924,41.593,71.327,28.228ZM40.472,66.567H40.09c-14.282-5.728-22.53-14.358-26.2-22.989h9.241l3.208-6.339,6.11,16.8,7.026-12.6,4.888,7.485,6.95-15.809,4.43,10.463H66.515C62.926,52.133,54.6,60.763,40.472,66.567ZM67.585,40.524H57.732L51.393,25.4,43.832,42.51,39.25,35.56,32.987,46.71,26.8,29.679,21.225,40.524h-8.4a24.287,24.287,0,0,1-.611-11.609c1.451-7.943,7.026-13.06,14.129-13.06,4.124,0,8.63,1.757,13.06,5.041l.916.687.84-.687c4.43-3.284,8.936-4.964,12.984-4.964,7.026,0,12.6,5.041,14.129,12.907A23.676,23.676,0,0,1,67.585,40.524Z" transform="translate(-8.7 -12.8)" fill="currentColor"></path></svg>