<svg class="hvr-icon" xmlns="http://www.w3.org/2000/svg" width="74.744" height="45.595" viewBox="0 0 74.744 45.595"><g transform="translate(-2 -14.459)"><g transform="translate(12.511 21.514)"><g><g><path d="M40.2,48.529H12.168a1.062,1.062,0,0,1-.934-.467A1.57,1.57,0,0,1,11,47.011l7.007-25.693a1.16,1.16,0,0,1,1.168-.818H47.2a1.062,1.062,0,0,1,.934.467,1.12,1.12,0,0,1,.234,1.051L41.365,47.712A1.27,1.27,0,0,1,40.2,48.529ZM13.686,46.193H39.263l6.423-23.358H20.109Z" transform="translate(-11 -20.5)" fill="currentColor"></path></g></g></g><g transform="translate(2 36.697)"><g><g><path d="M13.679,56.858A11.679,11.679,0,1,1,25.358,45.179,11.713,11.713,0,0,1,13.679,56.858Zm0-21.022a9.343,9.343,0,1,0,9.343,9.343A9.37,9.37,0,0,0,13.679,35.836Z" transform="translate(-2 -33.5)" fill="currentColor"></path></g></g></g><g transform="translate(16.009 16.837)"><g><g><path d="M39.694,49.2a1.062,1.062,0,0,1-.934-.467L14.234,18.369a1.168,1.168,0,1,1,1.869-1.4L40.628,47.333a1.142,1.142,0,0,1-.234,1.635A1.66,1.66,0,0,1,39.694,49.2Z" transform="translate(-13.995 -16.495)" fill="currentColor"></path></g></g></g><g transform="translate(43.996 14.459)"><g><g><path d="M55.525,44.872a1.394,1.394,0,0,1-1.051-.584L38.124,16.259a1.2,1.2,0,0,1,2.1-1.168L56.576,43.12a1.182,1.182,0,0,1-.467,1.635A1.053,1.053,0,0,1,55.525,44.872Z" transform="translate(-37.959 -14.459)" fill="currentColor"></path></g></g></g><g transform="translate(53.387 34.361)"><g><g><path d="M57.679,54.858A11.679,11.679,0,1,1,69.358,43.179,11.713,11.713,0,0,1,57.679,54.858Zm0-21.022a9.343,9.343,0,1,0,9.343,9.343A9.37,9.37,0,0,0,57.679,33.836Z" transform="translate(-46 -31.5)" fill="currentColor"></path></g></g></g><g transform="translate(9.007 16.843)"><g><g><path d="M26.686,18.836H9.168a1.168,1.168,0,0,1,0-2.336H26.686a1.168,1.168,0,0,1,0,2.336Z" transform="translate(-8 -16.5)" fill="currentColor"></path></g></g></g><g transform="translate(44.044 14.507)"><g><path d="M51.431,22.675H48.978a1.168,1.168,0,0,1,0-2.336h2.453a1.752,1.752,0,0,0,0-3.5H39.168a1.168,1.168,0,0,1,0-2.336H51.431a4.088,4.088,0,1,1,0,8.175Z" transform="translate(-38 -14.5)" fill="currentColor"></path></g></g></g></svg>