<svg class="hvr-icon" xmlns="http://www.w3.org/2000/svg" width="54.9" height="71.609" viewBox="0 0 54.9 71.609"><g transform="translate(-9 -2)"><path d="M59.126,18.709H51.966V6.774A4.779,4.779,0,0,0,47.192,2H13.774A4.779,4.779,0,0,0,9,6.774V68.835a4.779,4.779,0,0,0,4.774,4.774H47.192a4.779,4.779,0,0,0,4.774-4.774V59.287h7.161A4.779,4.779,0,0,0,63.9,54.513V23.483a4.779,4.779,0,0,0-4.774-4.774ZM36.45,4.387V5.58a1.194,1.194,0,0,1-1.193,1.193H25.709A1.194,1.194,0,0,1,24.515,5.58V4.387ZM49.579,68.835a2.39,2.39,0,0,1-2.387,2.387H13.774a2.39,2.39,0,0,1-2.387-2.387V6.774a2.39,2.39,0,0,1,2.387-2.387h8.354V5.58a3.584,3.584,0,0,0,3.58,3.58h9.548a3.584,3.584,0,0,0,3.58-3.58V4.387h8.354a2.39,2.39,0,0,1,2.387,2.387V18.709H18.548a4.779,4.779,0,0,0-4.774,4.774V54.513a4.779,4.779,0,0,0,4.774,4.774H49.579ZM61.513,54.513A2.39,2.39,0,0,1,59.126,56.9H18.548a2.39,2.39,0,0,1-2.387-2.387V23.483A2.39,2.39,0,0,1,18.548,21.1H59.126a2.39,2.39,0,0,1,2.387,2.387Z" transform="translate(0)" fill="currentColor"></path><path d="M28.317,35.972A1.193,1.193,0,1,0,30,34.284l-5.124-5.123L30,24.037a1.193,1.193,0,1,0-1.688-1.688L22.35,28.317a1.193,1.193,0,0,0,0,1.688Z" transform="translate(2.515 3.87)" fill="currentColor"></path><path d="M41.037,22.35a1.193,1.193,0,1,0-1.688,1.688l5.124,5.123L39.35,34.285a1.193,1.193,0,1,0,1.688,1.688L47,30a1.193,1.193,0,0,0,0-1.688Z" transform="translate(5.805 3.87)" fill="currentColor"></path><path d="M38.824,20.1a1.192,1.192,0,0,0-1.566.627L30.1,37.433a1.193,1.193,0,1,0,2.194.939l7.161-16.709a1.193,1.193,0,0,0-.627-1.566Z" transform="translate(4.063 3.483)" fill="currentColor"></path><path d="M33.515,39H19.193a1.193,1.193,0,0,0,0,2.387H33.515a1.194,1.194,0,1,0,0-2.387Z" transform="translate(1.741 7.159)" fill="currentColor"></path><path d="M28.741,43H19.194a1.194,1.194,0,1,0,0,2.387h9.548a1.194,1.194,0,1,0,0-2.387Z" transform="translate(1.741 7.933)" fill="currentColor"></path><path d="M23.194,58.387h9.548a1.194,1.194,0,1,0,0-2.387H23.194a1.194,1.194,0,1,0,0,2.387Z" transform="translate(2.515 10.448)" fill="currentColor"></path></g></svg>