<svg class="hvr-icon" xmlns="http://www.w3.org/2000/svg" width="80" height="80" viewBox="0 0 80 80" fill="none"><g><path d="M56.5332 20.5667C63.1999 25.2 67.7999 32.5667 68.7332 41.0667" stroke="#212529" stroke-width="3"></path><path d="M11.6343 41.2333C12.5009 32.7667 17.0343 25.4 23.6343 20.7333" stroke="#212529" stroke-width="3"></path><path d="M27.2998 69.8C31.1665 71.7667 35.5665 72.8667 40.1998 72.8667C44.6665 72.8667 48.8665 71.8667 52.6331 70.0334" stroke="#212529" stroke-width="3"></path><path d="M40.1993 25.6667C45.3171 25.6667 49.466 21.5179 49.466 16.4001C49.466 11.2822 45.3171 7.13339 40.1993 7.13339C35.0814 7.13339 30.9326 11.2822 30.9326 16.4001C30.9326 21.5179 35.0814 25.6667 40.1993 25.6667Z" stroke="#212529" stroke-width="3"></path><path d="M16.0992 66.3999C21.217 66.3999 25.3659 62.2511 25.3659 57.1333C25.3659 52.0154 21.217 47.8666 16.0992 47.8666C10.9813 47.8666 6.83252 52.0154 6.83252 57.1333C6.83252 62.2511 10.9813 66.3999 16.0992 66.3999Z" stroke="#212529" stroke-width="3"></path><path d="M63.9005 66.3999C69.0183 66.3999 73.1671 62.2511 73.1671 57.1333C73.1671 52.0154 69.0183 47.8666 63.9005 47.8666C58.7826 47.8666 54.6338 52.0154 54.6338 57.1333C54.6338 62.2511 58.7826 66.3999 63.9005 66.3999Z" stroke="#212529" stroke-width="3"></path></g><defs><clipPath id="clip0_445_7460"><rect width="80" height="80" fill="white"></rect></clipPath></defs></svg>