<svg class="hvr-icon" xmlns="http://www.w3.org/2000/svg" width="60.693" height="70.03" viewBox="0 0 60.693 70.03"><g transform="translate(-6 -2)"><path d="M63.191,2H9.5A3.5,3.5,0,0,0,6,5.5V70.863A1.167,1.167,0,0,0,7.167,72.03H65.526a1.167,1.167,0,0,0,1.167-1.167V5.5A3.5,3.5,0,0,0,63.191,2Zm-8.17,49.021H50.352V46.352h4.669Zm2.334,2.334v7H48.018v-7Zm1.167-2.334H57.355V45.185a1.167,1.167,0,0,0-1.167-1.167h-7a1.167,1.167,0,0,0-1.167,1.167v5.836H46.851a1.167,1.167,0,0,0-1.167,1.167v8.17H43.349v-8.17a1.167,1.167,0,0,0-1.167-1.167H41.015V45.185a1.167,1.167,0,0,0-1.167-1.167h-7a1.167,1.167,0,0,0-1.167,1.167v5.836H30.511a1.167,1.167,0,0,0-1.167,1.167v8.17H27.009v-8.17a1.167,1.167,0,0,0-1.167-1.167H24.675V45.185a1.167,1.167,0,0,0-1.167-1.167h-7a1.167,1.167,0,0,0-1.167,1.167v5.836H14.17A1.167,1.167,0,0,0,13,52.188v8.17H8.334V13.672H14.17v3.5a5.846,5.846,0,0,0,4.669,5.719v8.4a5.846,5.846,0,0,0-4.669,5.719,1.167,1.167,0,1,0,2.334,0,3.5,3.5,0,1,1,7,0,1.167,1.167,0,1,0,2.334,0A5.846,5.846,0,0,0,21.173,31.3v-8.4a5.846,5.846,0,0,0,4.669-5.719v-3.5h4.669v3.5a5.846,5.846,0,0,0,4.669,5.719v8.4a5.846,5.846,0,0,0-4.669,5.719,1.167,1.167,0,1,0,2.334,0,3.5,3.5,0,1,1,7,0,1.167,1.167,0,1,0,2.334,0A5.846,5.846,0,0,0,37.514,31.3v-8.4a5.846,5.846,0,0,0,4.669-5.719v-3.5h4.669v3.5a5.846,5.846,0,0,0,4.669,5.719v8.4a5.846,5.846,0,0,0-4.669,5.719,1.167,1.167,0,1,0,2.334,0,3.5,3.5,0,1,1,7,0,1.167,1.167,0,1,0,2.334,0A5.846,5.846,0,0,0,53.854,31.3v-8.4a5.846,5.846,0,0,0,4.669-5.719v-3.5h5.836V60.358H59.69v-8.17A1.167,1.167,0,0,0,58.523,51.021Zm-19.842,0H34.012V46.352h4.669Zm2.334,2.334v7H31.678v-7ZM22.34,51.021H17.672V46.352H22.34Zm2.334,2.334v7H15.337v-7ZM20.006,20.675a3.5,3.5,0,0,1-3.5-3.5v-3.5h7v3.5A3.5,3.5,0,0,1,20.006,20.675Zm16.34,0a3.5,3.5,0,0,1-3.5-3.5v-3.5h7v3.5A3.5,3.5,0,0,1,36.346,20.675Zm16.34,0a3.5,3.5,0,0,1-3.5-3.5v-3.5h7v3.5A3.5,3.5,0,0,1,52.687,20.675ZM8.334,5.5A1.167,1.167,0,0,1,9.5,4.334h53.69A1.167,1.167,0,0,1,64.358,5.5v5.836H8.334ZM64.358,69.7H8.334v-7H64.358Z" transform="translate(0 0)" fill="currentColor"></path><path d="M55.52,7.167A1.167,1.167,0,0,0,54.352,6H11.167a1.167,1.167,0,0,0,0,2.334H54.352A1.167,1.167,0,0,0,55.52,7.167Z" transform="translate(0.669 0.669)" fill="currentColor"></path><path d="M52.167,8.334h1.167a1.167,1.167,0,0,0,0-2.334H52.167a1.167,1.167,0,1,0,0,2.334Z" transform="translate(7.523 0.669)" fill="currentColor"></path><path d="M53.517,56H16.167a1.167,1.167,0,1,0,0,2.334H53.517a1.167,1.167,0,0,0,0-2.334Z" transform="translate(1.505 9.027)" fill="currentColor"></path><path d="M52.167,58.334h1.167a1.167,1.167,0,0,0,0-2.334H52.167a1.167,1.167,0,1,0,0,2.334Z" transform="translate(7.523 9.027)" fill="currentColor"></path><path d="M12.334,56H11.167a1.167,1.167,0,1,0,0,2.334h1.167a1.167,1.167,0,1,0,0-2.334Z" transform="translate(0.669 9.027)" fill="currentColor"></path><rect width="2" height="2" transform="translate(36 16)" fill="currentColor"></rect><rect width="2" height="2" transform="translate(19 16)" fill="currentColor"></rect><rect width="2" height="2" transform="translate(52 16)" fill="currentColor"></rect></g></svg>