<svg class="" xmlns="http://www.w3.org/2000/svg" width="40.61" height="42.351" viewBox="0 0 40.61 42.351"><g transform="translate(-0.218 -0.218)"><path d="M5.539,33.818a3.446,3.446,0,1,1-3.446,3.446A3.448,3.448,0,0,1,5.539,33.818Zm19.724-16.4c-.832,1.188-2.733-.119-1.782-1.426l3.565-4.753a22.762,22.762,0,0,0-14.258,5.347A19.87,19.87,0,0,0,6.133,30.372a1.131,1.131,0,1,1-2.258-.119,22.014,22.014,0,0,1,7.367-15.446A25.546,25.546,0,0,1,26.451,8.866L21.936,5.539c-1.307-.951.119-2.852,1.307-1.9L31.2,9.46Zm7.01,24.833c.951.951,2.376-.475,1.426-1.307l-3.565-3.683L33.7,33.7c.951-.951-.475-2.258-1.426-1.426l-3.565,3.683-3.683-3.683A.967.967,0,0,0,23.718,33.7l3.565,3.565-3.565,3.683c-.951.832.475,2.258,1.307,1.307l3.683-3.565ZM1.855,10.529A.967.967,0,1,1,.548,9.1L4.113,5.539.548,1.855A.928.928,0,1,1,1.855.548L5.539,4.113,9.1.548a.967.967,0,1,1,1.426,1.307L6.846,5.539,10.529,9.1A1.01,1.01,0,0,1,9.1,10.529L5.539,6.846ZM36.669,5.776a4.108,4.108,0,0,0-4.04,4.159,4.006,4.006,0,0,0,4.04,4.04,4.108,4.108,0,0,0,4.159-4.04A4.21,4.21,0,0,0,36.669,5.776Z" transform="translate(0 0)" fill="currentColor" fill-rule="evenodd"></path></g></svg>