<svg class="hvr-icon" xmlns="http://www.w3.org/2000/svg" width="68.5" height="59.5" viewBox="0 0 68.5 59.5"><path id="noun-retail-1508180" d="M121,598h2a1,1,0,0,1,0,2H57a1,1,0,0,1,0-2h2V555.654A8.962,8.962,0,0,1,57,550v-8a1,1,0,0,1,1-1h64a1,1,0,0,1,1,1v8a8.963,8.963,0,0,1-2,5.654Zm-7,0h5V557.482a9,9,0,0,1-13-3.358,9,9,0,0,1-16,0,9,9,0,0,1-16,0,9,9,0,0,1-13,3.358V598H97V568a1,1,0,0,1,1-1h15a1,1,0,0,1,1,1v30ZM99,569v29h13V569ZM75,543v7a7,7,0,0,0,14,0v-7Zm32,0v7a7,7,0,0,0,14,0v-7Zm-16,0v7a7,7,0,0,0,14,0v-7Zm-32,0v7a7,7,0,0,0,14,0v-7Zm8,46a1,1,0,0,1-1-1V568a1,1,0,0,1,1-1H91a1,1,0,0,1,1,1v20a1,1,0,0,1-1,1Zm1-2H90V569H68Z" transform="translate(-55.75 -540.75)" fill="currentColor" stroke="currentColor" stroke-width="0.5" fill-rule="evenodd"></path></svg>