<svg class="hvr-icon" xmlns="http://www.w3.org/2000/svg" width="85.083" height="66.016" viewBox="0 0 85.083 66.016"><g transform="translate(0.687 0.486)"><path d="M4.993,20.791l9.849,8.84L36.6,16.352C34.053,11.768,36.2,6.141,40.512,3.508s10.3-1.965,13.206,2.4L62,.852A5.579,5.579,0,0,1,69.657,2.7l.575.942a8.249,8.249,0,0,1,1.115-.82c6-3.663,9.78,2.524,3.776,6.187a7.988,7.988,0,0,1-1.239.616l.576.943a5.581,5.581,0,0,1-1.853,7.654l-5.879,3.587.757,1.24a4.487,4.487,0,1,1-1.64,1l-.756-1.24L40.644,37.73l-.369.128-7.953,1.1.163,6.7a4.5,4.5,0,1,1-1.911.049l-.157-6.482L11.03,41.914,0,23.839l4.993-3.048ZM9.242,35.3l2.774,4.547,27.791-3.855,31.8-19.4a3.661,3.661,0,0,0,1.214-5.014q-2.4-3.932-4.8-7.868A3.662,3.662,0,0,0,63,2.491L54.718,7.548c2.552,4.585.411,10.208-3.9,12.842-4.3,2.621-10.289,1.982-13.209-2.4L9.242,35.3ZM49.813,18.751c9.275-5.661.9-19.221-8.3-13.6C32.546,10.617,40.39,24.5,49.813,18.751ZM67.61,25.1a2.568,2.568,0,1,0,3.529.855A2.563,2.563,0,0,0,67.61,25.1Zm-34.2,23.1a2.569,2.569,0,1,0,.089,3.633,2.566,2.566,0,0,0-.089-3.633ZM72.347,4.465a5.839,5.839,0,0,0-1.095.853l1.612,2.641a5.843,5.843,0,0,0,1.258-.585c3.8-2.321,2.029-5.229-1.775-2.908ZM4.776,23.174l-2.137,1.3,5.6,9.182,4.891-2.985-8.357-7.5Z" transform="translate(0 10.481)" fill="currentColor" stroke="currentColor" stroke-width="1"></path><path d="M.346.024C.821-.266,2.819,2.141,4.807,5.4s3.215,6.135,2.741,6.425S5.075,9.708,3.086,6.449-.129.314.346.024Z" transform="translate(64.201 0)" fill="currentColor" stroke="currentColor" stroke-width="1" fill-rule="evenodd"></path><path d="M7.593,11.9c.475-.29-.751-3.167-2.74-6.425S.866-.192.392.1s.752,3.167,2.74,6.426S7.119,12.19,7.593,11.9Z" transform="translate(76.233 19.717)" fill="currentColor" stroke="currentColor" stroke-width="1" fill-rule="evenodd"></path></g></svg>