<svg class="hvr-icon" xmlns="http://www.w3.org/2000/svg" width="70.001" height="70.001" viewBox="0 0 70.001 70.001"><g transform="translate(-2 -2)"><path d="M32.724,21.464a1.6,1.6,0,0,0-2.259,2.259L38.9,32.139l-8.432,8.416a1.6,1.6,0,1,0,2.259,2.259l9.546-9.546a1.591,1.591,0,0,0,0-2.259Z" transform="translate(16.543 11.225)" fill="currentColor"></path><path d="M22.27,21.465a1.591,1.591,0,0,0-2.259,0L10.465,31.01a1.591,1.591,0,0,0,0,2.259l9.546,9.546a1.6,1.6,0,1,0,2.259-2.259L13.838,32.14l8.432-8.416a1.591,1.591,0,0,0,0-2.259Z" transform="translate(4.724 11.224)" fill="currentColor"></path><path d="M31.657,18.081a1.591,1.591,0,0,0-2.02,1L20.091,47.72a1.591,1.591,0,0,0,1,2.1,1.989,1.989,0,0,0,.509,0,1.591,1.591,0,0,0,1.511-1.082L32.659,20.1a1.591,1.591,0,0,0-1-2.02Z" transform="translate(10.625 9.453)" fill="currentColor"></path><path d="M67.228,2H6.773A4.773,4.773,0,0,0,2,6.773V67.228A4.773,4.773,0,0,0,6.773,72H67.228A4.773,4.773,0,0,0,72,67.228V6.773A4.773,4.773,0,0,0,67.228,2ZM6.773,5.182H67.228a1.591,1.591,0,0,1,1.591,1.591v7.955H5.182V6.773A1.591,1.591,0,0,1,6.773,5.182ZM67.228,68.819H6.773a1.591,1.591,0,0,1-1.591-1.591V17.909H68.819V67.228A1.591,1.591,0,0,1,67.228,68.819Z" transform="translate(0)" fill="currentColor"></path><path d="M39.591,9.182h3.182a1.591,1.591,0,1,0,0-3.182H39.591a1.591,1.591,0,1,0,0,3.182Z" transform="translate(21.274 2.364)" fill="currentColor"></path><path d="M33.591,9.182h3.182a1.591,1.591,0,0,0,0-3.182H33.591a1.591,1.591,0,0,0,0,3.182Z" transform="translate(17.728 2.364)" fill="currentColor"></path><path d="M27.591,9.182h3.182a1.591,1.591,0,0,0,0-3.182H27.591a1.591,1.591,0,1,0,0,3.182Z" transform="translate(14.182 2.364)" fill="currentColor"></path></g></svg>