<svg class="hvr-icon" xmlns="http://www.w3.org/2000/svg" width="70.8" height="70.8" viewBox="0 0 70.8 70.8"><g transform="translate(-1 -1)"><path d="M1,1V58.1H20.413V55.813H3.284V12.419H69.516V55.813H52.387V58.1H71.8V1Zm2.284,9.136V3.284H69.516v6.852Z" fill="currentColor"></path><rect width="2" height="2" transform="translate(6 6)" fill="currentColor"></rect><rect width="2" height="2" transform="translate(10 6)" fill="currentColor"></rect><rect width="2" height="2" transform="translate(15 6)" fill="currentColor"></rect><path d="M53.826,37.413a19.413,19.413,0,1,0-30.832,15.7v.29H20.71v2.284h2.284v2.284H20.71v2.284h2.284v2.284H20.71v2.284h2.284v4.568H45.832V64.819h2.284V62.536H45.832V60.252h2.284V57.968H45.832V55.684h2.284V53.4H45.832v-.29A19.411,19.411,0,0,0,53.826,37.413ZM43.548,67.1H25.277V64.819H43.548Zm0-4.568H25.277V60.252H43.548Zm0-4.568H25.277V55.684H43.548ZM34.413,41.981a4.568,4.568,0,1,1,4.568-4.568A4.572,4.572,0,0,1,34.413,41.981ZM35.555,53.4V44.162a6.852,6.852,0,1,0-2.284,0V53.4H25.277V51.914l-.5-.34a17.129,17.129,0,1,1,19.269,0l-.5.34V53.4Z" transform="translate(1.987 2.413)" fill="currentColor"></path><rect width="2" height="2" transform="translate(46 39)" fill="currentColor"></rect><rect width="2" height="2" transform="translate(25 39)" fill="currentColor"></rect><rect width="3" height="3" transform="translate(35 15)" fill="currentColor"></rect><rect width="2.284" height="3.426" transform="translate(22.85 18.64) rotate(-29.993)" fill="currentColor"></rect><rect width="2.284" height="3.426" transform="translate(14.073 28.253) rotate(-60.007)" fill="currentColor"></rect><rect width="4" height="2" transform="translate(11 39)" fill="currentColor"></rect><rect width="3.426" height="2.284" transform="translate(14.071 51.4) rotate(-29.993)" fill="currentColor"></rect><rect width="2.284" height="3.426" transform="translate(54.619 51.661) rotate(-60.007)" fill="currentColor"></rect><rect width="4" height="2" transform="translate(58 39)" fill="currentColor"></rect><rect width="3.426" height="2.284" transform="translate(54.62 27.99) rotate(-29.993)" fill="currentColor"></rect><rect width="3.426" height="2.284" transform="matrix(0.5, -0.866, 0.866, 0.5, 46.259, 20.466)" fill="currentColor"></rect></g></svg>